<?xml version="1.0" encoding="UTF-8"?>
<svg width="160px" height="160px" viewBox="0 0 160 160" version="1.1" xmlns="http://www.w3.org/2000/svg" xmlns:xlink="http://www.w3.org/1999/xlink">
    <!-- Generator: Sketch 56.3 (81716) - https://sketch.com -->
    <title>Path 4</title>
    <desc>Created with Sketch.</desc>
    <g id="Web-App" stroke="none" stroke-width="1" fill="none" fill-rule="evenodd">
        <g id="No-Trips" transform="translate(-355.000000, -242.000000)">
            <g id="Group-23" transform="translate(325.000000, 172.000000)">
                <g id="Chart-blue" transform="translate(30.000000, 70.000000)">
                    <g id="Path-4">
                        <circle id="Oval" fill="#E0E8EA" cx="80" cy="80" r="80"></circle>
                        <path d="M51.806,86 L50.42,86 L45.814,78.986 L45.814,86 L44.302,86 L44.302,76.032 L45.688,76.032 L50.294,83.032 L50.294,76.032 L51.806,76.032 L51.806,86 Z M62.714,81.016 C62.714,83.102 62.686,84.096 61.706,85.076 C61.062,85.72 60.222,86.084 59.13,86.084 C58.038,86.084 57.198,85.72 56.554,85.076 C55.574,84.096 55.546,83.102 55.546,81.016 C55.546,78.93 55.574,77.936 56.554,76.956 C57.198,76.312 58.038,75.948 59.13,75.948 C60.222,75.948 61.062,76.312 61.706,76.956 C62.686,77.936 62.714,78.93 62.714,81.016 Z M61.202,81.016 C61.202,79.042 61.118,78.426 60.614,77.908 C60.236,77.516 59.732,77.292 59.13,77.292 C58.528,77.292 58.024,77.516 57.646,77.908 C57.156,78.44 57.058,79.042 57.058,81.016 C57.058,82.99 57.156,83.578 57.646,84.11 C58.024,84.502 58.528,84.74 59.13,84.74 C59.732,84.74 60.236,84.502 60.614,84.11 C61.118,83.592 61.202,82.99 61.202,81.016 Z M77.432,77.39 L74.688,77.39 L74.688,86 L73.176,86 L73.176,77.39 L70.432,77.39 L70.432,76.032 L77.432,76.032 L77.432,77.39 Z M87.92,86 L86.156,86 L84.056,81.8 L82.166,81.8 L82.166,86 L80.654,86 L80.654,76.032 L84.518,76.032 C86.408,76.032 87.612,77.25 87.612,78.944 C87.612,80.372 86.744,81.282 85.624,81.59 L87.92,86 Z M86.1,78.958 C86.1,77.978 85.414,77.39 84.406,77.39 L82.166,77.39 L82.166,80.512 L84.406,80.512 C85.414,80.512 86.1,79.938 86.1,78.958 Z M92.836,86 L91.324,86 L91.324,76.032 L92.836,76.032 L92.836,86 Z M103.912,79.056 C103.912,80.792 102.666,82.066 100.72,82.066 L98.452,82.066 L98.452,86 L96.94,86 L96.94,76.032 L100.72,76.032 C102.666,76.032 103.912,77.32 103.912,79.056 Z M102.4,79.056 C102.4,77.992 101.7,77.39 100.636,77.39 L98.452,77.39 L98.452,80.722 L100.636,80.722 C101.7,80.722 102.4,80.106 102.4,79.056 Z M113.476,83.158 C113.476,84.992 111.992,86.084 109.892,86.084 C108.394,86.084 107.33,85.734 106.364,84.768 L107.358,83.774 C108.086,84.502 108.912,84.74 109.92,84.74 C111.236,84.74 111.978,84.18 111.978,83.2 C111.978,82.752 111.866,82.402 111.586,82.164 C111.334,81.94 110.998,81.814 110.494,81.744 L109.318,81.576 C108.506,81.45 107.876,81.198 107.442,80.778 C106.952,80.33 106.7,79.686 106.7,78.86 C106.7,77.124 107.96,75.948 110.032,75.948 C111.362,75.948 112.272,76.284 113.126,77.082 L112.174,78.034 C111.558,77.446 110.83,77.264 109.976,77.264 C108.8,77.264 108.17,77.908 108.17,78.818 C108.17,79.182 108.268,79.518 108.534,79.742 C108.786,79.966 109.08,80.106 109.626,80.19 L110.816,80.372 C111.726,80.512 112.23,80.722 112.664,81.114 C113.196,81.604 113.476,82.29 113.476,83.158 Z" id="NOTRIPS" fill="#808FA3" fill-rule="nonzero"></path>
                    </g>
                </g>
            </g>
        </g>
    </g>
</svg>
